<?xml version="1.0" encoding="UTF-8"?>
<svg id="Layer_1" data-name="Layer 1" xmlns="http://www.w3.org/2000/svg" viewBox="0 0 119.62 84.49">
  <defs>
    <style>
      .cls-1 {
        fill: #ffffff;
      }
    </style>
  </defs>
  <path class="cls-1" d="M.04,61.19l-.04-37.77C.95,10.88,10.7.9,23.39.08l72.52-.08c11.81.74,21.53,9.63,23.18,21.34-.02,12.79.96,25.88.31,38.68-.66,13.2-10.11,23.38-23.4,24.38l-72.52.08c-12.24-.76-22.62-10.54-23.23-22.93l-.22-.37ZM43.99,25.06c-.23.07-.4.22-.51.42l.04,33.57c.64,1.32,2.94-.07,3.93-.5,10.16-4.48,19.94-9.98,30.14-14.4,1.58-1.06,1.16-1.99-.24-2.89l-31.71-16.06c-.49-.21-1.12-.29-1.64-.13Z"/>
</svg>